<svg xmlns="http://www.w3.org/2000/svg" viewBox="0 0 128 128" shape-rendering="crispEdges">
  <rect width="128" height="128" rx="16" fill="#070812"/>
  <rect x="6" y="6" width="116" height="116" rx="10" fill="#11172f"/>
  <rect x="10" y="10" width="108" height="108" rx="6" fill="#151a35"/>
  <path d="M18 26h10v-8h8v8h10v8H36v10h-8V34H18z" fill="#4ed7ff"/>
  <path d="M88 18h10v8h8v10h-8v8H88v-8h-8V26h8z" fill="#ffd84d"/>
  <path d="M25 88h8v-8h10v8h8v10h-8v8H33v-8h-8z" fill="#ff62b0"/>
  <path d="M42 83h10v-8h10v-8h10v-8h10v-8h18v12H90v8H80v8H70v8H60v8H42z" fill="#fff6d7"/>
  <path d="M58 75h10v-8h10v-8h10v-8h12v8H90v8H80v8H70v8H58z" fill="#ffd84d"/>
  <path d="M98 47h12v12H98z" fill="#ff62b0"/>
  <path d="M34 42h10v10H34zM48 34h8v8h-8zM76 94h8v8h-8zM90 82h10v10H90z" fill="#63f5b7"/>
  <path d="M42 83h10v10H42zM52 75h10v8H52zM62 67h10v8H62z" fill="#15141f"/>
  <rect x="10" y="108" width="108" height="10" fill="#0a0d1c" opacity=".65"/>
</svg>
