<svg xmlns="http://www.w3.org/2000/svg" viewBox="0 0 128 128">
  <defs>
    <linearGradient id="bg" x1="18" y1="12" x2="114" y2="120" gradientUnits="userSpaceOnUse">
      <stop stop-color="#10231f"/>
      <stop offset="0.46" stop-color="#111827"/>
      <stop offset="1" stop-color="#2a1424"/>
    </linearGradient>
    <linearGradient id="brush" x1="32" y1="86" x2="99" y2="50" gradientUnits="userSpaceOnUse">
      <stop stop-color="#fffaf0"/>
      <stop offset="0.52" stop-color="#ffd166"/>
      <stop offset="1" stop-color="#58efb5"/>
    </linearGradient>
    <filter id="glow" x="-40%" y="-40%" width="180%" height="180%">
      <feGaussianBlur stdDeviation="4" result="blur"/>
      <feMerge>
        <feMergeNode in="blur"/>
        <feMergeNode in="SourceGraphic"/>
      </feMerge>
    </filter>
  </defs>
  <rect width="128" height="128" rx="24" fill="url(#bg)"/>
  <path d="M20 28c16-10 33-11 52-3 15 7 27 6 36-2" fill="none" stroke="#ffffff" stroke-opacity=".34" stroke-width="4" stroke-linecap="round"/>
  <path d="M28 92c16-25 42-42 76-50-3 25-22 43-56 54-9 3-17 1-20-4z" fill="url(#brush)" filter="url(#glow)"/>
  <path d="M42 83c12-9 27-17 46-24" fill="none" stroke="#15161d" stroke-width="7" stroke-linecap="round"/>
  <circle cx="34" cy="38" r="10" fill="#ff6b6b"/>
  <circle cx="63" cy="31" r="10" fill="#ffd166"/>
  <circle cx="91" cy="45" r="10" fill="#58efb5"/>
  <path d="M88 28l8-8M99 31l10-3M93 39l9 7" stroke="#fffaf0" stroke-width="4" stroke-linecap="round"/>
</svg>
